inDegrees=no
DataType=double
version=3
OpenSimVersion=4.4-2022-10-11-798caa840
endheader
time	elv_angle	shoulder_elv	shoulder_rot	elbow_flexion	pro_sup	deviation	flexion
2.4020851434	0.5861393809	0.8051307797	0.3823441565	1.0544496775	0.0000000000	0.0000000000	0.0000000000
2.4062554301	0.5861393809	0.8051307797	0.3823441565	1.0544496775	0.0000000000	0.0000000000	0.0000000000
2.4104257168	0.5861393809	0.8051307797	0.3823441565	1.0544496775	0.0000000000	0.0000000000	0.0000000000
2.4145960035	0.5861393809	0.8051307797	0.3823441565	1.0544496775	0.0000000000	0.0000000000	0.0000000000
2.4187662902	0.5861393809	0.8051307797	0.3823441565	1.0544496775	0.0000000000	0.0000000000	0.0000000000
2.4229365769	0.5861393809	0.8051307797	0.3823441565	1.0544496775	0.0000000000	0.0000000000	0.0000000000
2.4271068636	0.5861393809	0.8051307797	0.3823441565	1.0544496775	0.0000000000	0.0000000000	0.0000000000
2.4312771503	0.5861393809	0.8051307797	0.3823441565	1.0544496775	0.0000000000	0.0000000000	0.0000000000
2.4354474370	0.5861393809	0.8051307797	0.3823441565	1.0544496775	0.0000000000	0.0000000000	0.0000000000
2.4396177237	0.5861393809	0.8051307797	0.3823441565	1.0544496775	0.0000000000	0.0000000000	0.0000000000
2.4437880104	0.5861393809	0.8051307797	0.3823441565	1.0544496775	0.0000000000	0.0000000000	0.0000000000
2.4479582971	0.5861393809	0.8051307797	0.3823441565	1.0544496775	0.0000000000	0.0000000000	0.0000000000
2.4521285838	0.5861393809	0.8051307797	0.3823441565	1.0544496775	0.0000000000	0.0000000000	0.0000000000
2.4562988705	0.5861393809	0.8051307797	0.3823441565	1.0544496775	0.0000000000	0.0000000000	0.0000000000
2.4604691573	0.5861393809	0.8051307797	0.3823441565	1.0544496775	0.0000000000	0.0000000000	0.0000000000
2.4646394440	0.5861393809	0.8051307797	0.3823441565	1.0544496775	0.0000000000	0.0000000000	0.0000000000
2.4688097307	0.5861393809	0.8051307797	0.3823441565	1.0544496775	0.0000000000	0.0000000000	0.0000000000
2.4729800174	0.5861393809	0.8051307797	0.3823441565	1.0544496775	0.0000000000	0.0000000000	0.0000000000
2.4771503041	0.5861393809	0.8051307797	0.3823441565	1.0544496775	0.0000000000	0.0000000000	0.0000000000
2.4813205908	0.5861393809	0.8051307797	0.3823441565	1.0544496775	0.0000000000	0.0000000000	0.0000000000
2.4854908775	0.5861393809	0.8051307797	0.3823441565	1.0544496775	0.0000000000	0.0000000000	0.0000000000
2.4896611642	0.5861393809	0.8051307797	0.3823441565	1.0544496775	0.0000000000	0.0000000000	0.0000000000
2.4938314509	0.5861393809	0.8051307797	0.3823441565	1.0544496775	0.0000000000	0.0000000000	0.0000000000
2.4980017376	0.5861393809	0.8051307797	0.3823441565	1.0544496775	0.0000000000	0.0000000000	0.0000000000
2.5021720243	0.5861393809	0.8051307797	0.3823441565	1.0544496775	0.0000000000	0.0000000000	0.0000000000
2.5063423110	0.5861393809	0.8051307797	0.3823441565	1.0544496775	0.0000000000	0.0000000000	0.0000000000
2.5105125977	0.5861393809	0.8051307797	0.3823441565	1.0544496775	0.0000000000	0.0000000000	0.0000000000
2.5146828844	0.5861393809	0.8051307797	0.3823441565	1.0544496775	0.0000000000	0.0000000000	0.0000000000
2.5188531712	0.5861393809	0.8051307797	0.3823441565	1.0544496775	0.0000000000	0.0000000000	0.0000000000
2.5230234579	0.5861393809	0.8051307797	0.3823441565	1.0544496775	0.0000000000	0.0000000000	0.0000000000
2.5271937446	0.5861393809	0.8051307797	0.3823441565	1.0544496775	0.0000000000	0.0000000000	0.0000000000
2.5313640313	0.5861393809	0.8051307797	0.3823441565	1.0544496775	0.0000000000	0.0000000000	0.0000000000
2.5355343180	0.5861393809	0.8051307797	0.3823441565	1.0544496775	0.0000000000	0.0000000000	0.0000000000
2.5397046047	0.5861393809	0.8051307797	0.3823441565	1.0544496775	0.0000000000	0.0000000000	0.0000000000
2.5438748914	0.5861393809	0.8051307797	0.3823441565	1.0544496775	0.0000000000	0.0000000000	0.0000000000
2.5480451781	0.5861393809	0.8051307797	0.3823441565	1.0544496775	0.0000000000	0.0000000000	0.0000000000
2.5522154648	0.5861393809	0.8051307797	0.3823441565	1.0544496775	0.0000000000	0.0000000000	0.0000000000
2.5563857515	0.5861393809	0.8051307797	0.3823441565	1.0544496775	0.0000000000	0.0000000000	0.0000000000
2.5605560382	0.5861393809	0.8051307797	0.3823441565	1.0544496775	0.0000000000	0.0000000000	0.0000000000
2.5647263249	0.5861393809	0.8051307797	0.3823441565	1.0544496775	0.0000000000	0.0000000000	0.0000000000
2.5688966116	0.5861393809	0.8051307797	0.3823441565	1.0544496775	0.0000000000	0.0000000000	0.0000000000
2.5730668983	0.5861393809	0.8051307797	0.3823441565	1.0544496775	0.0000000000	0.0000000000	0.0000000000
2.5772371851	0.5861393809	0.8051307797	0.3823441565	1.0544496775	0.0000000000	0.0000000000	0.0000000000
2.5814074718	0.5861393809	0.8051307797	0.3823441565	1.0544496775	0.0000000000	0.0000000000	0.0000000000
2.5855777585	0.5861393809	0.8051307797	0.3823441565	1.0544496775	0.0000000000	0.0000000000	0.0000000000
2.5897480452	0.5861393809	0.8051307797	0.3823441565	1.0544496775	0.0000000000	0.0000000000	0.0000000000
2.5939183319	0.5861393809	0.8051307797	0.3823441565	1.0544496775	0.0000000000	0.0000000000	0.0000000000
2.5980886186	0.5861393809	0.8051307797	0.3823441565	1.0544496775	0.0000000000	0.0000000000	0.0000000000
2.6022589053	0.5861393809	0.8051307797	0.3823441565	1.0544496775	0.0000000000	0.0000000000	0.0000000000
2.6064291920	0.5861393809	0.8051307797	0.3823441565	1.0544496775	0.0000000000	0.0000000000	0.0000000000
2.6105994787	0.5861393809	0.8051307797	0.3823441565	1.0544496775	0.0000000000	0.0000000000	0.0000000000
2.6147697654	0.5861393809	0.8051307797	0.3823441565	1.0544496775	0.0000000000	0.0000000000	0.0000000000
2.6189400521	0.5861393809	0.8051307797	0.3823441565	1.0544496775	0.0000000000	0.0000000000	0.0000000000
2.6231103388	0.5861393809	0.8051307797	0.3823441565	1.0544496775	0.0000000000	0.0000000000	0.0000000000
2.6272806255	0.5861393809	0.8051307797	0.3823441565	1.0544496775	0.0000000000	0.0000000000	0.0000000000
2.6314509123	0.5861393809	0.8051307797	0.3823441565	1.0544496775	0.0000000000	0.0000000000	0.0000000000
2.6356211990	0.5861393809	0.8051307797	0.3823441565	1.0544496775	0.0000000000	0.0000000000	0.0000000000
2.6397914857	0.5861393809	0.8051307797	0.3823441565	1.0544496775	0.0000000000	0.0000000000	0.0000000000
2.6439617724	0.5861393809	0.8051307797	0.3823441565	1.0544496775	0.0000000000	0.0000000000	0.0000000000
2.6481320591	0.5861393809	0.8051307797	0.3823441565	1.0544496775	0.0000000000	0.0000000000	0.0000000000
2.6523023458	0.5861393809	0.8051307797	0.3823441565	1.0544496775	0.0000000000	0.0000000000	0.0000000000
2.6564726325	0.5861378908	0.8051300645	0.3823442757	1.0544525385	0.0000000000	0.0000000000	0.0000000000
2.6606429192	0.5861268640	0.8051249981	0.3823452294	1.0544739962	0.0000000000	0.0000000000	0.0000000000
2.6648132059	0.5860972404	0.8051114678	0.3823477626	1.0545309782	0.0000000000	0.0000000000	0.0000000000
2.6689834926	0.5860401988	0.8050855994	0.3823525906	1.0546408892	0.0000000000	0.0000000000	0.0000000000
2.6731537793	0.5859478712	0.8050435781	0.3823604584	1.0548186302	0.0000000000	0.0000000000	0.0000000000
2.6773240660	0.5858122706	0.8049818873	0.3823719323	1.0550795794	0.0000000000	0.0000000000	0.0000000000
